<svg width="38" height="38" viewBox="0 0 38 38" fill="none" xmlns="http://www.w3.org/2000/svg">
<rect width="37.1244" height="37.1244" rx="4.84231" fill="#00FF91"/>
<path fill-rule="evenodd" clip-rule="evenodd" d="M19.0728 7.21024C19.6596 7.40234 20.0565 7.94982 20.0565 8.56724V14.5687H25.1025C25.1201 14.5687 25.1376 14.5687 25.1551 14.5687C25.5293 14.5686 25.9015 14.5686 26.2057 14.5964C26.5039 14.6236 27.0139 14.6938 27.4633 15.0433L27.4638 15.0437C27.994 15.4564 28.3132 16.0848 28.3323 16.7578C28.3486 17.3272 28.1035 17.7801 27.9491 18.0367C27.7917 18.2983 27.5717 18.5982 27.3506 18.8997C27.3401 18.914 27.3296 18.9284 27.319 18.9427L27.319 18.9428L19.78 29.2232C19.4149 29.7211 18.7711 29.9279 18.1844 29.7358C17.5976 29.5437 17.2007 28.9962 17.2007 28.3788V22.3773H12.1547C12.1372 22.3773 12.1196 22.3773 12.1021 22.3773C11.7279 22.3774 11.3557 22.3775 11.0515 22.3497C10.7532 22.3224 10.2433 22.2522 9.794 21.9028L9.79373 21.9026C9.26263 21.4894 8.94393 20.8604 8.92486 20.1879L8.92486 20.1878C8.90877 19.6188 9.15356 19.1661 9.30803 18.9094C9.46563 18.6474 9.68593 18.3471 9.90739 18.0452C9.91766 18.0312 9.92793 18.0172 9.9382 18.0032C9.9382 18.0032 9.93821 18.0032 9.93821 18.0032L17.4772 7.72285C17.8423 7.22496 18.4861 7.01815 19.0728 7.21024ZM12.366 19.5216H18.6286C19.4172 19.5216 20.0565 20.1609 20.0565 20.9495V24.0172L24.8912 17.4244H18.6286C17.84 17.4244 17.2007 16.7852 17.2007 15.9966V12.9288L12.366 19.5216Z" fill="#151515"/>
</svg>
